HIERARCHY
ROOT Hips
{
  OFFSET 5.72205e-005 65.662 3.42586
  CHANNELS 6 Xposition Yposition Zposition Zrotation Xrotation Yrotation
  JOINT Chest
  {
    OFFSET 0 8.7983 -4.7612
    CHANNELS 3 Zrotation Xrotation Yrotation
    JOINT Chest2
    {
      OFFSET 0 8.0291 0.4195
      CHANNELS 3 Zrotation Xrotation Yrotation
      JOINT Chest3
      {
        OFFSET 0 9.9351 -2.2114
        CHANNELS 3 Zrotation Xrotation Yrotation
        JOINT Neck
        {
          OFFSET 0 22.3885 -0.4656
          CHANNELS 3 Zrotation Xrotation Yrotation
          JOINT Head
          {
            OFFSET -0.0001 12.643 3.4389
            CHANNELS 3 Zrotation Xrotation Yrotation
            End Site
            {
              OFFSET 0.0001 17.6655 0.5274
            }
          }
        }
        JOINT LeftCollar
        {
          OFFSET 2.2603 21.606 7.4023
          CHANNELS 3 Zrotation Xrotation Yrotation
          JOINT LeftShoulder
          {
            OFFSET 13.5163 -1.1332 -5.0146
            CHANNELS 3 Zrotation Xrotation Yrotation
            JOINT LeftElbow
            {
              OFFSET -0.0995 -28.05 -0.2431
              CHANNELS 3 Zrotation Xrotation Yrotation
              JOINT LeftWrist
              {
                OFFSET 0.0679 -23.3996 -0.1402
                CHANNELS 3 Zrotation Xrotation Yrotation
                JOINT LeftFinger1
                {
                  OFFSET 0.7932 -9.069 2.5189
                  CHANNELS 3 Zrotation Xrotation Yrotation
                  JOINT LeftFinger11
                  {
                    OFFSET -0.8272 -3.3923 0.5977
                    CHANNELS 3 Zrotation Xrotation Yrotation
                    JOINT LeftFinger12
                    {
                      OFFSET -0.5649 -2.3158 0.4082
                      CHANNELS 3 Zrotation Xrotation Yrotation
                      End Site
                      {
                        OFFSET -0.4919 -1.6479 0.2673
                      }
                    }
                  }
                }
                JOINT LeftFinger2
                {
                  OFFSET 0.9159 -9.2044 0.2193
                  CHANNELS 3 Zrotation Xrotation Yrotation
                  JOINT LeftFinger21
                  {
                    OFFSET 0.0117 -4.1944 -0.0248
                    CHANNELS 3 Zrotation Xrotation Yrotation
                    JOINT LeftFinger22
                    {
                      OFFSET 0.0071 -2.3249 -0.0142
                      CHANNELS 3 Zrotation Xrotation Yrotation
                      End Site
                      {
                        OFFSET -0.1475 -2.0882 0.0028
                      }
                    }
                  }
                }
                JOINT LeftFinger3
                {
                  OFFSET 0.6113 -8.7231 -2.0637
                  CHANNELS 3 Zrotation Xrotation Yrotation
                  JOINT LeftFinger31
                  {
                    OFFSET -0.1927 -3.8059 -0.2383
                    CHANNELS 3 Zrotation Xrotation Yrotation
                    JOINT LeftFinger32
                    {
                      OFFSET -0.1091 -2.1688 -0.1362
                      CHANNELS 3 Zrotation Xrotation Yrotation
                      End Site
                      {
                        OFFSET -0.2358 -1.9176 -0.0906
                      }
                    }
                  }
                }
                JOINT LeftFinger4
                {
                  OFFSET -0.6151 -8.0947 -3.5641
                  CHANNELS 3 Zrotation Xrotation Yrotation
                  JOINT LeftFinger41
                  {
                    OFFSET -0.4882 -2.341 -0.6462
                    CHANNELS 3 Zrotation Xrotation Yrotation
                    JOINT LeftFinger42
                    {
                      OFFSET -0.3575 -1.7167 -0.4742
                      CHANNELS 3 Zrotation Xrotation Yrotation
                      End Site
                      {
                        OFFSET -0.4187 -1.5237 -0.3496
                      }
                    }
                  }
                }
                JOINT LeftFinger0
                {
                  OFFSET -1.42 -1.8761 1.4223
                  CHANNELS 3 Zrotation Xrotation Yrotation
                  JOINT LeftFinger01
                  {
                    OFFSET -1.1471 -3.4929 2.6334
                    CHANNELS 3 Zrotation Xrotation Yrotation
                    JOINT LeftFinger02
                    {
                      OFFSET -0.823 -2.3 1.6571
                      CHANNELS 3 Zrotation Xrotation Yrotation
                      End Site
                      {
                        OFFSET -0.5822 -1.6914 1.1582
                      }
                    }
                  }
                }
              }
            }
          }
        }
        JOINT RightCollar
        {
          OFFSET -2.2603 21.606 7.4023
          CHANNELS 3 Zrotation Xrotation Yrotation
          JOINT RightShoulder
          {
            OFFSET -13.5187 -1.1334 -5.0155
            CHANNELS 3 Zrotation Xrotation Yrotation
            JOINT RightElbow
            {
              OFFSET 0.0994 -28.0499 -0.2431
              CHANNELS 3 Zrotation Xrotation Yrotation
              JOINT RightWrist
              {
                OFFSET -0.0679 -23.3996 -0.1402
                CHANNELS 3 Zrotation Xrotation Yrotation
                JOINT RightFinger1
                {
                  OFFSET -0.7932 -9.0691 2.5189
                  CHANNELS 3 Zrotation Xrotation Yrotation
                  JOINT RightFinger11
                  {
                    OFFSET 0.8272 -3.3923 0.5977
                    CHANNELS 3 Zrotation Xrotation Yrotation
                    JOINT RightFinger12
                    {
                      OFFSET 0.565 -2.3158 0.4082
                      CHANNELS 3 Zrotation Xrotation Yrotation
                      End Site
                      {
                        OFFSET 0.4919 -1.6479 0.2673
                      }
                    }
                  }
                }
                JOINT RightFinger2
                {
                  OFFSET -0.916 -9.2044 0.2193
                  CHANNELS 3 Zrotation Xrotation Yrotation
                  JOINT RightFinger21
                  {
                    OFFSET -0.0117 -4.1944 -0.0248
                    CHANNELS 3 Zrotation Xrotation Yrotation
                    JOINT RightFinger22
                    {
                      OFFSET -0.0071 -2.3249 -0.0142
                      CHANNELS 3 Zrotation Xrotation Yrotation
                      End Site
                      {
                        OFFSET 0.1475 -2.0882 0.0028
                      }
                    }
                  }
                }
                JOINT RightFinger3
                {
                  OFFSET -0.6113 -8.7231 -2.0637
                  CHANNELS 3 Zrotation Xrotation Yrotation
                  JOINT RightFinger31
                  {
                    OFFSET 0.1927 -3.8059 -0.2383
                    CHANNELS 3 Zrotation Xrotation Yrotation
                    JOINT RightFinger32
                    {
                      OFFSET 0.1091 -2.1688 -0.1362
                      CHANNELS 3 Zrotation Xrotation Yrotation
                      End Site
                      {
                        OFFSET 0.2358 -1.9176 -0.0906
                      }
                    }
                  }
                }
                JOINT RightFinger4
                {
                  OFFSET 0.6151 -8.0947 -3.564
                  CHANNELS 3 Zrotation Xrotation Yrotation
                  JOINT RightFinger41
                  {
                    OFFSET 0.4882 -2.341 -0.6462
                    CHANNELS 3 Zrotation Xrotation Yrotation
                    JOINT RightFinger42
                    {
                      OFFSET 0.3574 -1.7166 -0.4742
                      CHANNELS 3 Zrotation Xrotation Yrotation
                      End Site
                      {
                        OFFSET 0.4187 -1.5237 -0.3496
                      }
                    }
                  }
                }
                JOINT RightFinger0
                {
                  OFFSET 1.4199 -1.8761 1.4221
                  CHANNELS 3 Zrotation Xrotation Yrotation
                  JOINT RightFinger01
                  {
                    OFFSET 1.1472 -3.4929 2.6336
                    CHANNELS 3 Zrotation Xrotation Yrotation
                    JOINT RightFinger02
                    {
                      OFFSET 0.8229 -2.3 1.6571
                      CHANNELS 3 Zrotation Xrotation Yrotation
                      End Site
                      {
                        OFFSET 0.5822 -1.6914 1.1582
                      }
                    }
                  }
                }
              }
            }
          }
        }
      }
    }
  }
  JOINT RightHip
  {
    OFFSET -9.412 3.9771 -0.7758
    CHANNELS 3 Zrotation Xrotation Yrotation
    JOINT RightKnee
    {
      OFFSET -0.7531 -40.938 0
      CHANNELS 3 Zrotation Xrotation Yrotation
      JOINT RightAnkle
      {
        OFFSET 0 -40.1986 0
        CHANNELS 3 Zrotation Xrotation Yrotation
        JOINT RightToe
        {
          OFFSET 0 -4.4182 9.239
          CHANNELS 3 Zrotation Xrotation Yrotation
          End Site
          {
            OFFSET 0 0 6.1981
          }
        }
      }
    }
  }
  JOINT LeftHip
  {
    OFFSET 9.4119 3.9773 -0.7758
    CHANNELS 3 Zrotation Xrotation Yrotation
    JOINT LeftKnee
    {
      OFFSET 0.7532 -40.9383 0
      CHANNELS 3 Zrotation Xrotation Yrotation
      JOINT LeftAnkle
      {
        OFFSET 0 -40.1986 0
        CHANNELS 3 Zrotation Xrotation Yrotation
        JOINT LeftToe
        {
          OFFSET 0 -4.4182 9.239
          CHANNELS 3 Zrotation Xrotation Yrotation
          End Site
          {
            OFFSET 0 0 6.1981
          }
        }
      }
    }
  }
}
MOTION
Frames:	6
Frame Time:	0.0333333
0.823631 63.3953 27.3778 -1.70037e-008 21.4492 -8.95828e-008 0.345374 1.19031 -0.485565 0.701057 2.37771 -0.978619 0.701056 2.3777 -0.978618 -3.42943e-005 -1.33711 4.95497e-005 1.06123e-006 -10.147 -1.05911e-007 -23.9789 31.0832 -18.7251 58.9066 -20.9085 83.2644 -86.9021 -3.40625 10.1695 4.75704 -41.1078 -132.461 -3.97252e-031 -3.18055e-015 -7.15625e-015 -8.82781e-032 -3.18055e-015 -1.59028e-015 6.62086e-032 -4.77083e-015 7.95139e-016 -3.97252e-031 -3.18055e-015 -7.15625e-015 -0.0128538 0.00232941 8.44901e-005 6.36111e-015 0 7.95139e-016 -3.97252e-031 -3.18055e-015 -7.15625e-015 -0.0160481 0.00299695 0.000849089 9.54166e-015 -7.95139e-015 6.36111e-015 -3.97252e-031 -3.18055e-015 -7.15625e-015 -0.0124894 0.00307929 0.0027888 -3.18055e-015 -1.59028e-015 4.77083e-015 -3.97252e-031 -3.18055e-015 -7.15625e-015 -8.82781e-032 -3.18055e-015 -1.59028e-015 6.62086e-032 -4.77083e-015 7.95139e-016 22.0577 29.2632 14.0494 -55.9252 -24.3826 -79.8827 86.8106 -2.33695 -8.92696 -4.35291 -38.0054 134.143 6.36111e-015 4.77083e-015 7.95139e-016 3.18055e-015 4.77083e-015 6.36111e-015 8.97159e-008 1.13891e-006 2.94017e-006 6.36111e-015 4.77083e-015 7.95139e-016 0.0128948 0.00229881 -8.47892e-005 -2.98015e-006 2.50504e-006 1.28004e-006 6.36111e-015 4.77083e-015 7.95139e-016 0.016284 0.00301825 -0.000865071 3.18055e-015 0 7.95139e-015 6.36111e-015 4.77083e-015 7.95139e-016 0.0145423 0.00366852 -0.00325705 -2.98024e-006 1.90887e-006 1.28008e-006 6.36111e-015 4.77083e-015 7.95139e-016 3.18055e-015 4.77083e-015 6.36111e-015 8.97159e-008 1.13891e-006 2.94017e-006 -25.1357 -41.5174 -26.3412 5.36215 31.9898 -4.78092 -4.28987 4.45489 -10.9385 2.6695e-006 -4.79271e-006 7.71162e-006 24.1179 -42.047 27.2753 -5.34563 33.372 4.90138 5.84621 2.78412 10.0179 1.63957e-006 7.98104e-007 2.00753e-007 
0.823672 63.3917 27.1242 1.61859e-008 21.9001 -3.48629e-008 0.346458 1.05974 -0.48375 0.702033 2.11649 -0.974151 0.702032 2.11649 -0.974151 6.71518e-005 -2.02066 -9.92182e-005 -6.79001e-008 -11.1958 2.83816e-007 -23.9788 31.0835 -18.7251 58.9067 -20.9085 83.2644 -86.9021 -3.40622 10.1695 5.10807 -41.0078 -132.226 3.18055e-015 -1.59028e-015 -2.38542e-015 -1.10348e-031 -1.59028e-015 -3.97569e-015 5.29669e-031 -3.18055e-015 9.54166e-015 3.18055e-015 -1.59028e-015 -2.38542e-015 -0.0128655 0.00233953 8.85063e-005 0 1.59028e-015 -0 3.18055e-015 -1.59028e-015 -2.38542e-015 -0.0160551 0.00300365 0.000860499 3.18055e-015 3.18055e-015 -6.36111e-015 3.18055e-015 -1.59028e-015 -2.38542e-015 -0.012524 0.00310556 0.00281297 -4.41391e-032 -1.59028e-015 -1.59028e-015 3.18055e-015 -1.59028e-015 -2.38542e-015 -1.10348e-031 -1.59028e-015 -3.97569e-015 5.29669e-031 -3.18055e-015 9.54166e-015 22.058 29.2635 14.0491 -55.9251 -24.3826 -79.8827 86.8106 -2.33698 -8.92705 -4.68966 -37.911 133.936 -1.10348e-031 1.59028e-015 3.97569e-015 -1.10348e-031 1.59028e-015 3.97569e-015 -1.32417e-031 1.59028e-015 4.77083e-015 -1.10348e-031 1.59028e-015 3.97569e-015 0.0129555 0.0023176 -8.31908e-005 -3.18055e-015 0 -4.77083e-015 -1.10348e-031 1.59028e-015 3.97569e-015 0.0163553 0.00303353 -0.000872359 3.31043e-031 -4.77083e-015 3.97569e-015 -1.10348e-031 1.59028e-015 3.97569e-015 0.0145432 0.00367375 -0.00325734 1.43462e-006 -1.05563e-006 -1.60736e-006 -1.10348e-031 1.59028e-015 3.97569e-015 -1.10348e-031 1.59028e-015 3.97569e-015 -1.32417e-031 1.59028e-015 4.77083e-015 -25.1233 -42.1631 -25.8825 5.3685 32.0161 -4.78662 -4.10872 4.66325 -11.5492 6.19351e-007 -1.11504e-006 8.94805e-006 24.1174 -42.6918 26.887 -5.35125 33.3952 4.90727 5.70389 3.00074 10.5555 -1.63931e-006 -9.12559e-007 -2.02994e-007 
0.823724 63.3885 26.8706 -1.0943e-007 22.351 1.72057e-007 0.347588 0.929298 -0.481994 0.703126 1.85564 -0.969814 0.703125 1.85562 -0.969813 -7.76183e-005 -2.70503 0.00011547 -1.53419e-007 -12.2448 7.6567e-007 -23.979 31.083 -18.7251 58.9067 -20.9085 83.2644 -86.9021 -3.4063 10.1695 5.45808 -40.9067 -131.992 1.63037e-006 -8.23271e-007 1.29995e-006 -3.18055e-015 -6.36111e-015 -3.18055e-015 -6.36111e-015 -6.36111e-015 -7.95139e-016 1.63037e-006 -8.23271e-007 1.29995e-006 -0.0127624 0.00230153 7.02626e-005 9.25258e-007 8.30305e-006 1.46893e-005 1.63037e-006 -8.23271e-007 1.29995e-006 -0.015986 0.00297923 0.000841186 -5.98093e-006 -1.98147e-006 2.68471e-006 1.63037e-006 -8.23271e-007 1.29995e-006 -0.0125721 0.00311406 0.0028189 2.20695e-032 -1.59028e-015 7.95139e-016 1.63037e-006 -8.23271e-007 1.29995e-006 -3.18055e-015 -6.36111e-015 -3.18055e-015 -6.36111e-015 -6.36111e-015 -7.95139e-016 22.0576 29.2632 14.0495 -55.9251 -24.3826 -79.8827 86.8106 -2.33692 -8.92687 -5.02573 -37.8156 133.731 9.12305e-006 1.11424e-005 -4.91072e-006 4.41391e-032 -3.18055e-015 7.95139e-016 -0 -1.59028e-015 -0 9.12305e-006 1.11424e-005 -4.91072e-006 0.0129382 0.00232283 -8.78663e-005 1.84122e-007 2.30584e-006 5.88188e-006 9.12305e-006 1.11424e-005 -4.91072e-006 0.0162334 0.00301372 -0.000857382 3.09576e-006 3.19449e-007 6.5903e-007 9.12305e-006 1.11424e-005 -4.91072e-006 0.0145218 0.003662 -0.00323809 3.38824e-008 6.83011e-006 -2.0102e-006 9.12305e-006 1.11424e-005 -4.91072e-006 4.41391e-032 -3.18055e-015 7.95139e-016 -0 -1.59028e-015 -0 -25.1032 -42.8091 -25.4186 5.3747 32.0427 -4.79231 -3.92537 4.86949 -12.1608 5.56597e-015 3.18055e-015 -3.18055e-015 24.1105 -43.3374 26.4946 -5.35678 33.4196 4.91337 5.55971 3.21537 11.0938 -1.63905e-006 1.81227e-006 -2.05307e-007 
0.823794 63.3858 26.6169 -1.04147e-007 22.8019 6.21252e-008 0.34863 0.798679 -0.480108 0.704046 1.59437 -0.965213 0.704046 1.59437 -0.965212 0.000174522 -3.38826 -0.000263074 3.24334e-007 -13.2936 4.79835e-008 -23.9787 31.0838 -18.7251 58.9067 -20.9085 83.2644 -86.9021 -3.40622 10.1694 5.80701 -40.8046 -131.759 0 1.59028e-015 -0 0 1.59028e-015 -0 2.20695e-032 1.59028e-015 -7.95139e-016 0 1.59028e-015 -0 -0.0128504 0.00232581 7.98116e-005 -1.72932e-006 1.75665e-006 -3.23408e-006 0 1.59028e-015 -0 -0.0160465 0.00298971 0.000854746 -0 0 1.59028e-015 0 1.59028e-015 -0 -0.0126393 0.00312904 0.00283661 4.41391e-032 1.59028e-015 -1.59028e-015 0 1.59028e-015 -0 0 1.59028e-015 -0 2.20695e-032 1.59028e-015 -7.95139e-016 22.0583 29.2636 14.0488 -55.9251 -24.3826 -79.8827 86.8106 -2.33695 -8.92699 -5.3607 -37.7193 133.527 3.18055e-015 -3.18055e-015 -2.38542e-015 -3.18055e-015 0 -7.95139e-016 3.18055e-015 1.59028e-015 5.56597e-015 3.18055e-015 -3.18055e-015 -2.38542e-015 0.0129166 0.00230625 -8.37835e-005 -9.30943e-008 -1.15257e-006 -2.94133e-006 3.18055e-015 -3.18055e-015 -2.38542e-015 0.0163112 0.00303513 -0.000863353 -1.65046e-006 -4.81277e-007 -2.26508e-006 3.18055e-015 -3.18055e-015 -2.38542e-015 0.0145712 0.00368393 -0.00325806 -1.54688e-006 -4.65598e-007 -3.30121e-007 3.18055e-015 -3.18055e-015 -2.38542e-015 -3.18055e-015 0 -7.95139e-016 3.18055e-015 1.59028e-015 5.56597e-015 -25.0755 -43.4556 -24.9495 5.381 32.0706 -4.7982 -3.73992 5.0731 -12.7732 5.35014e-007 1.46458e-006 1.74291e-006 24.0974 -43.983 26.0979 -5.36259 33.4445 4.91948 5.41357 3.42833 11.6328 -2.64331e-006 -3.84816e-006 -7.65408e-006 
0.823881 63.3837 26.3631 2.43116e-007 23.2527 -1.76924e-007 0.349722 0.66822 -0.478285 0.70508 1.33347 -0.960737 0.70508 1.33347 -0.960737 0.000185778 -4.07213 -0.000284407 1.94814e-007 -14.3422 -1.39912e-007 -23.9786 31.0838 -18.7252 58.9067 -20.9085 83.2644 -86.9021 -3.40633 10.1695 6.15475 -40.7012 -131.528 -3.18055e-015 -1.59028e-015 1.66979e-014 1.63006e-006 -5.4548e-007 2.22992e-006 -9.54166e-015 -1.59028e-015 -3.97569e-015 -3.18055e-015 -1.59028e-015 1.66979e-014 -0.0128237 0.00232467 8.92493e-005 -3.18055e-015 3.18055e-015 9.54166e-015 -3.18055e-015 -1.59028e-015 1.66979e-014 -0.0160421 0.00299442 0.000852843 7.99797e-006 -5.83199e-007 5.42658e-006 -3.18055e-015 -1.59028e-015 1.66979e-014 -0.0125042 0.00310397 0.00280956 8.82781e-031 -7.95139e-015 6.36111e-015 -3.18055e-015 -1.59028e-015 1.66979e-014 1.63006e-006 -5.4548e-007 2.22992e-006 -9.54166e-015 -1.59028e-015 -3.97569e-015 22.0583 29.2636 14.0488 -55.9252 -24.3826 -79.8827 86.8106 -2.33693 -8.92702 -5.69488 -37.6221 133.323 -2.80507e-006 -1.90692e-006 7.15667e-006 4.73199e-006 1.49104e-006 3.93336e-006 -3.08973e-031 -3.18055e-015 -5.56597e-015 -2.80507e-006 -1.90692e-006 7.15667e-006 0.0129635 0.00230899 -8.40918e-005 -6.36111e-015 -1.59028e-015 7.95139e-016 -2.80507e-006 -1.90692e-006 7.15667e-006 0.0163229 0.00303459 -0.000873777 8.82781e-032 1.59028e-015 -3.18055e-015 -2.80507e-006 -1.90692e-006 7.15667e-006 0.01456 0.00367753 -0.003259 -3.18055e-015 0 -1.35174e-014 -2.80507e-006 -1.90692e-006 7.15667e-006 4.73199e-006 1.49104e-006 3.93336e-006 -3.08973e-031 -3.18055e-015 -5.56597e-015 -25.0403 -44.1014 -24.4751 5.3879 32.0985 -4.80404 -3.55232 5.27444 -13.3865 4.08382e-007 -1.81216e-006 -1.4518e-006 24.0772 -44.6292 25.6962 -5.36807 33.4702 4.9258 5.26557 3.63947 12.1724 5.90565e-006 5.76069e-006 8.06865e-006 
0.823978 63.382 26.1094 1.56046e-008 23.7034 -1.57524e-007 0.350879 0.537898 -0.476544 0.706266 1.07287 -0.956436 0.706261 1.07287 -0.956429 -0.00010892 -4.75642 0.000167966 1.09696e-007 -15.3903 -1.3242e-007 -23.9791 31.0831 -18.725 58.9067 -20.9085 83.2644 -86.9021 -3.40627 10.1694 6.5015 -40.597 -131.297 3.18055e-015 -3.18055e-015 2.38542e-015 3.97252e-031 -3.18055e-015 7.15625e-015 -0 0 7.95139e-016 3.18055e-015 -3.18055e-015 2.38542e-015 -0.0128142 0.00232476 9.25441e-005 -5.66074e-007 -1.2111e-005 -8.81464e-006 3.18055e-015 -3.18055e-015 2.38542e-015 -0.0160553 0.00299946 0.000865816 -3.18055e-015 0 3.18055e-015 3.18055e-015 -3.18055e-015 2.38542e-015 -0.0126119 0.00312663 0.00284152 2.70457e-006 -4.17595e-006 -5.28147e-006 3.18055e-015 -3.18055e-015 2.38542e-015 3.97252e-031 -3.18055e-015 7.15625e-015 -0 0 7.95139e-016 22.0576 29.2632 14.0496 -55.9252 -24.3826 -79.8828 86.8106 -2.33694 -8.92692 -6.02826 -37.5239 133.121 -6.36111e-015 -1.59028e-015 -8.74653e-015 -6.36111e-015 0 5.56597e-015 -2.20695e-032 1.59028e-015 7.95139e-016 -6.36111e-015 -1.59028e-015 -8.74653e-015 0.0129434 0.00231676 -8.65401e-005 -9.54166e-015 -3.18055e-015 -2.38542e-015 -6.36111e-015 -1.59028e-015 -8.74653e-015 0.0163369 0.00303152 -0.000865255 -3.18055e-015 1.59028e-015 -5.56597e-015 -6.36111e-015 -1.59028e-015 -8.74653e-015 0.01459 0.00368647 -0.00326165 3.18055e-015 -1.59028e-015 -6.36111e-015 -6.36111e-015 -1.59028e-015 -8.74653e-015 -6.36111e-015 0 5.56597e-015 -2.20695e-032 1.59028e-015 7.95139e-016 -24.9966 -44.7475 -23.9948 5.39458 32.1273 -4.80998 -3.36267 5.4734 -14.0005 1.63626e-006 8.98723e-008 2.23536e-007 24.0509 -45.2746 25.2904 -5.37462 33.4962 4.93217 5.11568 3.8488 12.7126 -1.63836e-006 -2.74326e-008 -2.12682e-007 
